<?xml version="1.0" encoding="UTF-8" standalone="no"?>
<svg
   xmlns:dc="http://purl.org/dc/elements/1.1/"
   xmlns:cc="http://creativecommons.org/ns#"
   xmlns:rdf="http://www.w3.org/1999/02/22-rdf-syntax-ns#"
   xmlns:svg="http://www.w3.org/2000/svg"
   xmlns="http://www.w3.org/2000/svg"
   xmlns:sodipodi="http://sodipodi.sourceforge.net/DTD/sodipodi-0.dtd"
   xmlns:inkscape="http://www.inkscape.org/namespaces/inkscape"
   inkscape:version="1.0 (4035a4f, 2020-05-01)"
   version="1.1"
   viewBox="0 0 744.09 1052.4"
   sodipodi:docname="1360612009.svg"
   id="svg2">
  <defs
     id="defs16" />
  <sodipodi:namedview
     inkscape:document-rotation="0"
     inkscape:document-units="px"
     inkscape:pageopacity="0.0"
     inkscape:window-width="1080"
     inkscape:cy="371.20752"
     inkscape:cx="260.04103"
     inkscape:current-layer="layer1"
     borderopacity="1.0"
     showgrid="false"
     inkscape:window-x="0"
     inkscape:zoom="0.35"
     inkscape:window-maximized="1"
     inkscape:window-height="1875"
     pagecolor="#ffffff"
     inkscape:window-y="23"
     inkscape:pageshadow="2"
     bordercolor="#666666"
     id="base" />
  <g
     inkscape:groupmode="layer"
     inkscape:label="Layer 1"
     id="layer1">
    <path
       d="m 347.64443,921.20355 c -6.883,-57.336 -2.6723,-121.13 -35.926,-170.34 -17.542,-13.456 -62.225,-56.831 -57.208,-52.071 18.748,44.024 77.104,55.949 75.103,110.81 8.1597,36.772 13.133,74.222 18.031,111.6 z m -258.189997,-346.34 c 25.171997,-3.8064 43.673997,-44.382 41.885997,-55.706 -7.3239,23.655 -23.896,40.531 -41.885997,55.706 z m 628.479997,-236.06 c -1.779,-20.66 -55.921,-56.37 -25.998,-18.91 10.007,4.34 20.943,7.66 25.998,18.91 z m -45.023,12.577 c -2.8411,44.7 70.653,30.773 46.861,-9.6744 3.9793,28.688 -30.631,43.155 -39.51,12.577 l -7.3507,-2.9023 z m 2.7565,-119.96 c -2.3865,-41.699 53.947,-63.222 33.186,-105.86 -30.943,-17.882 -76.078,-10.378 -107.03,7.3432 -8.2848,15.315 34.813,45.901 17.566,7.9225 13.758,-23.693 80.078,-38.098 87.155,2.7965 -4.2562,31.694 -41.913,53.324 -30.874,87.795 z m -66.156,-29.023 c 10.25,-14.102 19.063,-25.796 7.1236,-2.7267 -2.8604,5.3701 -2.6104,10.988 -7.1236,2.7267 z m -207.66,-3.8698 c -0.10805,-20.197 -48.73,-38.927 -5.714,-23.46 10.022,3.2245 8.1687,66.87 5.714,23.46 z m 79.224,-1.8175 c -17.476,-47.579 -73.365,-51.482 -114.64,-45.424 -21.664,-0.32891 -33.078,2.7175 -5.9334,9.5109 35.39,9.8535 77.152,-21.652 104.05,19.24 5.7071,5.3332 11.227,10.89 16.525,16.673 z m 105.46,21.166 c -52.091,-14.482 -108.47,-26.319 -160.45,-4.6811 -18.44,8.6743 -86.769,-6.6037 -35.108,6.6811 39.866,10.145 76.69,-23.706 117.45,-13.609 23.992,15.492 51.022,13.599 78.101,11.609 z m 85.462,23.21 c -16.225,-37.805 -66.334,-46.794 -89.592,-10.471 -28.99,35.062 -25.359,85.807 -25.263,129.47 5.7022,-48.939 3.6284,-108.83 47.171,-140.06 20.745,-21.153 53.474,3.4394 67.684,21.061 z m -358.35,316.36 c 26.633,-38.951 76.761,-14.479 114.86,-20.082 53.729,0.18419 114.27,-4.9813 156.34,-44.029 38.69,-41.413 79.154,-88.349 83.171,-149.35 2.4552,-26.699 23.629,-74.632 5.0694,-86.287 3.5256,63.348 -14.314,130.19 -60.674,173.36 -22.343,26.773 -29.813,68.139 -68.135,77.049 -45.879,26.301 -100.76,25.525 -149.82,10.855 -27.955,4.0489 -68.894,6.3497 -80.81,38.485 z m 33.078,-185.75 c 3.8182,-37.825 45.265,-65.234 30.347,-105.17 -13.655,-50.865 -50.914,-91.342 -58.831,-144.43 0.4057,-45.736998 -66.402,-36.230998 -77.402,-40.445998 21.81,1.95 44.821,-0.094 65.905,4.2674 32.855,24.738998 15.67,76.714998 47.536,106.209998 6.9482,40.395 59.634,73.978 32.308,116.53 -15.362,19.857 -32.587,37.348 -39.862,63.036 z m -121.29,-118.03 c 0.70143,-42.665 0.30714,-84.337 -29.941,-115.4 -26.344,-31.299 46.398,-25.741 23.943,-17.394 -48.709,-3.6859 1.676,49.392 16.105,65.076 4.2605,22.855 -3.6789,46.167 -10.107,67.721 z m -117.61,203.16 c 9.4695,-36.014 34.54,-65.621 37.672,-103.52 11.797,-42.405 43.455,-77.827 81.651,-94.839 25.707,-24.103 50.175,-65.14 30.448,-101.55 -12.467,-18.843 -52.034,-58.286998 -24.809,-75.459998 -14.667,34.527998 32.45,67.327998 36.754,103.519998 1.2462,33.461 -19.368,75.797 -52.418,83.633 -29.313,24.19 -55.311,58.737 -69.692,95.178 -8.1985,32.848 -22.838,64.132 -39.605,93.04 z m 178.81,54.45 c -44.497,-4.2194 -60.999,-58.973 -106.78,-57.263 -17.486,-8.0092 -65.897,5.9 -68.718,11.967 36.328,-12.991 79.046,-17.746 110.81,10.008 16.987,20.464 39.093,32.335 64.69,35.288 z m -1.2994,120.4 c 12.148,-34.838 35.277,-72.496 16.243,-110.14 13.036,40.451 -14.143,71.135 -16.243,110.14 z m -265.079997,-68.408 c -11.2020002,-35.178 3.7535,-93.91 47.429,-86.879 -38.743,1.4054 -54.588,46.163 -47.429,86.879 z m 24.689,-45.15 c 2.4701,-42.009 73.334997,-69.767 89.020997,-26.3 3.7224,18.608 2.3143,34.275 -3.258,6.4616 -9.4696,-43.394 -72.235997,-23.093 -81.565997,11.65 l -2.2264,4.2318 -1.9702,3.9568 z m 12.99,36.26 c -4.2188,-15.197 -16.913,-44.427 -22.74,-15.734 -13.973,21.717 2.3182,28.987 2.8756,0.60572 7.4118,-0.36253 6.6809,24.037 19.865,15.128 z m 134.489997,69.78 c -24.268,21.52 -48.605,-1.794 -46.555,-29.035 0.30079,-9.3188 56.727,-7.4693 46.223,25.884 l 0.24174,2.2906 0.0908,0.86038 z m -70.819,80.722 c -43.201997,-14.292 -84.890997,-48.194 -81.629997,-100.75 -3.7943,-15.514 -31.3080002,-51.742 -5.5141,-19.827 15.121,36.903 19.906,86.563 60.515,106.37 8.654197,5.1775 17.564997,9.8761 26.629997,14.203 z m 242.99,227.8 c 25.415,-56.737 7.7583,-123.68 -15.628,-177.76 -12.96,-33.069 -45.755,-50.476 -59.74,-82.187 13.773,-19.31 -18.29,-44.873 -11.362,-15.432 8.7537,22.412 25.288,48.91 46.241,68.101 46.6,55.559 57.402,136.92 40.488,207.28 z m -263.14,-24.627 c 27.434,-53.628 37.779,-115.57 40.977,-175.79 3.1467,-19.457 -27.096,-34.082 1.2549,-15.75 8.13,32.197 -2.1381,66.874 -7.1827,99.22 -7.4559,32.445 -11.338,67.597 -35.049,92.324 z m 105.26,-119.71 c -3.7907,43.752 -26.968,81.963 -60.729,107.08 -17.945,11.8 -54.559997,68.89 -67.675997,39.261 -3.1839,-24.473 33.914997,-31.388 10.99,-6.3001 -22.531,34.387 30.464997,-7.4727 34.900997,-21.012 31.459,-22.909 58.392,-52.983 71.372,-91.55 3.8901,-9.0796 7.6122,-18.24 11.142,-27.481 z m -16.243,-76.617 c 17.213,31.902 15.864,73.212 23.155,109.5 0.60121,13.697 24.361,54.359 8.9119,18.997 -13.304,-41.835 -10.159,-90.586 -27.519,-129.18 -0.18011,-0.70874 -14.292,-3.2205 -4.548,0.68408 z m 51.328,-56.779 c -16.724,32.457 -34.867,66.99 -26.448,105.7 5.778,42.764 10.198,87.027 25.896,127.19 19.922,33.893 46.755,82.137 91.503,72.54 18.288,-2.7402 42.119,-40.692 10.404,-16.755 -37.144,21.138 -76.296,-15.696 -92.26,-49.254 -29.14,-51.916 -22.904,-113.74 -18.192,-171.02 -1.8509,-26.26 51.728,-78.11 16.058,-87.737 -7.952,4.0068 -8.6249,11.244 -6.9624,19.329 z"
       inkscape:connector-curvature="0"
       style="fill:#000000"
       id="path3816" />
  </g>
  <metadata
     id="metadata13">
    <rdf:RDF>
      <cc:Work>
        <dc:format>image/svg+xml</dc:format>
        <dc:type
           rdf:resource="http://purl.org/dc/dcmitype/StillImage" />
        <cc:license
           rdf:resource="http://creativecommons.org/licenses/publicdomain/" />
        <dc:publisher>
          <cc:Agent
             rdf:about="http://openclipart.org/">
            <dc:title>Openclipart</dc:title>
          </cc:Agent>
        </dc:publisher>
        <dc:title>rabbit</dc:title>
        <dc:date>2013-02-11T14:46:49</dc:date>
        <dc:description>A black / white drawing of a rabbit</dc:description>
        <dc:source>https://openclipart.org/detail/175027/rabbit-by-artbejo-175027</dc:source>
        <dc:creator>
          <cc:Agent>
            <dc:title>artbejo</dc:title>
          </cc:Agent>
        </dc:creator>
        <dc:subject>
          <rdf:Bag>
            <rdf:li>animal</rdf:li>
            <rdf:li>rabbit</rdf:li>
          </rdf:Bag>
        </dc:subject>
      </cc:Work>
      <cc:License
         rdf:about="http://creativecommons.org/licenses/publicdomain/">
        <cc:permits
           rdf:resource="http://creativecommons.org/ns#Reproduction" />
        <cc:permits
           rdf:resource="http://creativecommons.org/ns#Distribution" />
        <cc:permits
           rdf:resource="http://creativecommons.org/ns#DerivativeWorks" />
      </cc:License>
    </rdf:RDF>
  </metadata>
</svg>
