<?xml version="1.0" encoding="UTF-8" standalone="no"?>
<svg
   xmlns:dc="http://purl.org/dc/elements/1.1/"
   xmlns:cc="http://creativecommons.org/ns#"
   xmlns:rdf="http://www.w3.org/1999/02/22-rdf-syntax-ns#"
   xmlns:svg="http://www.w3.org/2000/svg"
   xmlns="http://www.w3.org/2000/svg"
   xmlns:sodipodi="http://sodipodi.sourceforge.net/DTD/sodipodi-0.dtd"
   xmlns:inkscape="http://www.inkscape.org/namespaces/inkscape"
   version="1.1"
   id="Capa_1"
   x="0px"
   y="0px"
   viewBox="0 0 59.015 59.015"
   style="enable-background:new 0 0 59.015 59.015;"
   xml:space="preserve"
   sodipodi:docname="carrot-svgrepo-com.svg"
   inkscape:version="1.0 (4035a4f, 2020-05-01)"><metadata
   id="metadata51"><rdf:RDF><cc:Work
       rdf:about=""><dc:format>image/svg+xml</dc:format><dc:type
         rdf:resource="http://purl.org/dc/dcmitype/StillImage" /></cc:Work></rdf:RDF></metadata><defs
   id="defs49" /><sodipodi:namedview
   inkscape:document-rotation="0"
   pagecolor="#ffffff"
   bordercolor="#666666"
   borderopacity="1"
   objecttolerance="10"
   gridtolerance="10"
   guidetolerance="10"
   inkscape:pageopacity="0"
   inkscape:pageshadow="2"
   inkscape:window-width="928"
   inkscape:window-height="930"
   id="namedview47"
   showgrid="false"
   inkscape:zoom="9.811065"
   inkscape:cx="29.5075"
   inkscape:cy="29.5075"
   inkscape:window-x="0"
   inkscape:window-y="23"
   inkscape:window-maximized="0"
   inkscape:current-layer="g14" />
<g
   id="g14">
	<path
   d="m 57.756,26.999 c 2.034,-2.607 1.153,-5.051 0.458,-5.904 -1.52,-2.286 -3.618,-3.695 -6.236,-4.188 -0.207,-0.039 -0.418,-0.052 -0.627,-0.078 0.27,-0.227 0.529,-0.455 0.773,-0.685 1.757,-1.663 2.6,-3.44 2.505,-5.282 C 54.483,8.043 52.145,6.216 52.045,6.139 L 51.998,6.105 C 47.879,3.308 43.255,6.693 43.06,6.839 L 42.884,7.007 C 42.812,7.095 42.743,7.198 42.672,7.289 42.22,4.97 40.967,3.126 38.942,1.81 38.467,1.43 35.436,-0.81 31.899,0.987 31.461,1.21 31.065,1.498 30.691,1.814 29.655,1.521 28.503,1.433 27.361,1.837 c -1.552,0.55 -2.568,1.871 -2.718,3.535 -0.16,1.769 0.732,3.482 2.271,4.365 1.409,0.808 3.097,2.304 4.665,5.047 -0.933,-0.064 -1.835,0.035 -2.687,0.342 -5.081,1.825 -25.177,31.267 -28.742,40.828 -0.3,0.806 -0.144,1.649 0.409,2.203 0.367,0.367 0.862,0.56 1.39,0.56 0.267,0 0.542,-0.049 0.813,-0.15 9.629,-3.59 39.191,-23.586 40.986,-28.585 0.245,-0.683 0.361,-1.399 0.37,-2.136 2.742,1.343 4.192,2.65 4.948,3.688 1.102,1.512 2.879,2.446 4.651,2.446 0.019,0 0.038,0 0.057,0 1.477,-0.017 2.788,-0.695 3.598,-1.86 1.204,-1.734 0.777,-3.606 0.135,-4.83 0.085,-0.098 0.173,-0.193 0.249,-0.291 z m -1.16,-4.732 c 0.114,0.149 1.049,1.483 -0.3,3.347 -0.042,-0.05 -0.086,-0.095 -0.129,-0.144 -0.073,-0.084 -0.146,-0.165 -0.22,-0.247 -0.189,-0.211 -0.379,-0.414 -0.572,-0.609 -0.059,-0.06 -0.118,-0.12 -0.177,-0.178 -3.13,-3.066 -6.698,-4.031 -9.936,-4.031 -1.148,0 -2.255,0.121 -3.286,0.31 0.111,-0.05 0.226,-0.1 0.339,-0.149 0.157,-0.069 0.314,-0.138 0.475,-0.206 0.173,-0.073 0.348,-0.144 0.526,-0.214 0.148,-0.059 0.3,-0.116 0.451,-0.173 0.278,-0.104 0.56,-0.205 0.847,-0.301 0.179,-0.06 0.358,-0.12 0.539,-0.175 0.175,-0.054 0.353,-0.105 0.53,-0.155 0.197,-0.055 0.395,-0.106 0.594,-0.155 0.195,-0.048 0.391,-0.095 0.588,-0.137 0.276,-0.059 0.553,-0.111 0.831,-0.155 0.15,-0.024 0.3,-0.044 0.45,-0.063 1.174,-0.152 2.349,-0.167 3.466,0.042 2.096,0.395 3.711,1.484 4.984,3.393 z M 44.349,8.377 c 0.582,-0.397 3.809,-2.431 6.496,-0.637 0.179,0.147 1.696,1.45 1.787,3.226 0.063,1.23 -0.57,2.484 -1.883,3.727 -0.769,0.728 -1.705,1.448 -2.783,2.141 -0.133,0.017 -0.265,0.044 -0.398,0.064 -0.28,0.042 -0.559,0.084 -0.836,0.138 -0.192,0.038 -0.38,0.083 -0.57,0.126 -0.219,0.05 -0.437,0.099 -0.653,0.156 -0.201,0.052 -0.399,0.108 -0.597,0.166 -0.199,0.058 -0.396,0.117 -0.592,0.179 -0.203,0.065 -0.404,0.13 -0.603,0.199 -0.179,0.062 -0.354,0.126 -0.529,0.191 -0.206,0.076 -0.412,0.151 -0.613,0.231 -0.136,0.054 -0.267,0.11 -0.401,0.165 -0.869,0.359 -1.678,0.736 -2.403,1.106 -0.01,0.005 -0.022,0.011 -0.032,0.016 0.613,-1.136 1.257,-2.483 1.805,-3.936 0.034,-0.091 0.071,-0.179 0.104,-0.271 0.094,-0.259 0.18,-0.523 0.267,-0.788 0.047,-0.144 0.097,-0.287 0.141,-0.433 0.077,-0.251 0.144,-0.504 0.212,-0.759 0.043,-0.162 0.087,-0.323 0.126,-0.486 0.06,-0.251 0.112,-0.503 0.162,-0.756 0.033,-0.168 0.065,-0.335 0.093,-0.504 0.042,-0.251 0.076,-0.502 0.105,-0.753 0.01,-0.088 0.028,-0.175 0.037,-0.263 0.515,-0.847 1.027,-1.585 1.558,-2.245 z M 32.843,2.752 c 2.549,-1.269 4.77,0.552 4.86,0.627 0.035,0.03 0.071,0.057 0.109,0.082 1.609,1.033 2.56,2.422 2.906,4.245 0.148,0.778 0.17,1.594 0.109,2.424 l -0.007,0.09 c -0.13,1.575 -0.579,3.198 -1.149,4.707 C 39.712,13.968 39.666,12.98 39.504,11.986 39.499,11.955 39.492,11.925 39.487,11.895 39.45,11.68 39.409,11.465 39.361,11.249 39.332,11.117 39.298,10.985 39.264,10.854 39.236,10.746 39.208,10.637 39.176,10.529 39.125,10.35 39.07,10.172 39.01,9.994 38.994,9.946 38.976,9.897 38.959,9.849 38.469,8.45 37.693,7.08 36.54,5.8 36.508,5.765 36.476,5.729 36.444,5.694 36.279,5.515 36.11,5.338 35.93,5.164 35.843,5.079 35.75,4.995 35.659,4.911 35.52,4.783 35.384,4.654 35.236,4.529 34.967,4.298 34.686,4.07 34.387,3.847 34.385,3.845 34.378,3.839 34.375,3.837 34.295,3.767 34.119,3.622 33.868,3.434 33.866,3.433 33.865,3.431 33.863,3.43 33.607,3.239 33.274,3.01 32.878,2.775 32.865,2.766 32.855,2.759 32.843,2.752 Z m -4.933,5.25 c -0.864,-0.495 -1.364,-1.457 -1.275,-2.45 0.038,-0.415 0.249,-1.424 1.394,-1.829 0.323,-0.115 0.656,-0.164 0.989,-0.164 0.53,0 1.06,0.128 1.559,0.313 0,0 0.002,0.001 0.003,0.001 0.013,0.005 0.025,0.011 0.038,0.016 0.172,0.065 0.341,0.135 0.503,0.212 0.08,0.038 0.155,0.078 0.233,0.117 0.13,0.067 0.259,0.135 0.379,0.204 0.047,0.027 0.094,0.054 0.139,0.081 0.536,0.323 0.949,0.643 1.152,0.808 0.039,0.033 0.063,0.054 0.068,0.057 0.023,0.021 0.047,0.04 0.072,0.059 0.436,0.323 0.837,0.664 1.21,1.018 0.106,0.101 0.193,0.206 0.293,0.308 0.255,0.26 0.503,0.524 0.726,0.799 0.098,0.121 0.182,0.244 0.272,0.366 0.204,0.276 0.398,0.558 0.571,0.849 0.068,0.114 0.133,0.229 0.195,0.344 0.188,0.347 0.359,0.703 0.504,1.07 0.023,0.057 0.049,0.114 0.071,0.171 0.703,1.876 0.863,4.005 0.467,6.378 -0.275,1.644 -0.779,3.137 -1.257,4.291 -0.169,-0.608 -0.348,-1.182 -0.53,-1.739 -0.03,-0.093 -0.062,-0.182 -0.093,-0.274 -0.17,-0.507 -0.346,-0.994 -0.525,-1.46 C 35.037,17.469 35.008,17.389 34.977,17.31 32.825,11.865 30.084,9.248 27.91,8.002 Z m 13.956,21.303 c -0.539,1.499 -4.297,4.767 -9.365,8.555 -0.085,-0.035 -0.169,-0.074 -0.266,-0.085 -1.633,-0.179 -3.748,-1.023 -4.792,-2.505 -0.318,-0.452 -0.944,-0.559 -1.394,-0.241 -0.452,0.318 -0.56,0.942 -0.241,1.394 1.109,1.572 2.916,2.526 4.562,3.004 -3.18,2.305 -6.722,4.729 -10.247,7.024 -0.149,-0.131 -0.326,-0.232 -0.538,-0.256 -1.025,-0.112 -2.349,-0.635 -2.994,-1.549 -0.318,-0.451 -0.941,-0.56 -1.394,-0.24 -0.451,0.318 -0.559,0.942 -0.24,1.394 0.734,1.041 1.888,1.696 2.982,2.059 -6.474,4.124 -12.592,7.61 -15.875,8.834 -0.022,0.008 -0.042,0.014 -0.057,0.02 0.004,-0.017 0.01,-0.037 0.018,-0.059 0.807,-2.164 2.306,-5.08 4.199,-8.346 0.036,0.036 0.059,0.08 0.101,0.111 0.718,0.527 1.481,0.985 2.267,1.36 0.139,0.066 0.286,0.098 0.431,0.098 0.373,0 0.731,-0.21 0.903,-0.569 C 10.164,48.809 9.953,48.212 9.455,47.975 8.781,47.653 8.126,47.26 7.508,46.807 7.411,46.736 7.303,46.693 7.194,46.662 9.535,42.749 12.346,38.45 15.192,34.36 c 0.381,0.991 1.01,1.993 1.946,2.654 0.175,0.124 0.376,0.183 0.576,0.183 0.314,0 0.623,-0.147 0.818,-0.423 0.318,-0.451 0.211,-1.075 -0.24,-1.394 -0.915,-0.646 -1.437,-1.969 -1.549,-2.995 -0.006,-0.057 -0.035,-0.104 -0.05,-0.158 2.214,-3.111 4.395,-6.021 6.341,-8.453 0.477,1.648 1.432,3.461 3.007,4.572 0.175,0.124 0.376,0.183 0.576,0.183 0.314,0 0.624,-0.147 0.818,-0.423 0.318,-0.452 0.211,-1.075 -0.24,-1.394 -1.482,-1.046 -2.326,-3.161 -2.505,-4.792 -0.005,-0.043 -0.028,-0.078 -0.038,-0.119 2.251,-2.678 4.035,-4.473 4.92,-4.791 0.49,-0.176 0.998,-0.264 1.529,-0.264 0.502,0 1.026,0.079 1.576,0.237 0.44,0.994 0.842,2.074 1.208,3.224 0.024,0.075 0.048,0.149 0.071,0.225 0.151,0.486 0.294,0.988 0.432,1.499 0.031,0.115 0.063,0.224 0.094,0.341 0.158,0.607 0.309,1.228 0.448,1.868 0.009,0.042 0.03,0.079 0.044,0.12 0.014,0.039 0.024,0.08 0.043,0.117 0.005,0.011 0.009,0.022 0.015,0.033 0.017,0.031 0.041,0.055 0.061,0.083 0.005,0.007 0.01,0.014 0.016,0.021 0.023,0.031 0.042,0.065 0.068,0.093 0.006,0.006 0.01,0.013 0.016,0.019 v 0 c 0,0 0.001,0 0.001,0 0.003,0.003 0.006,0.005 0.009,0.007 0.028,0.028 0.062,0.049 0.094,0.074 0.007,0.006 0.014,0.011 0.021,0.017 0.026,0.02 0.049,0.044 0.077,0.061 0.011,0.007 0.023,0.011 0.035,0.017 0.023,0.013 0.048,0.022 0.072,0.033 0.023,0.01 0.045,0.016 0.068,0.025 0.031,0.011 0.058,0.029 0.09,0.037 0.575,0.146 1.134,0.297 1.68,0.452 0.124,0.035 0.239,0.071 0.36,0.106 0.428,0.124 0.85,0.25 1.259,0.379 0.105,0.033 0.204,0.066 0.307,0.1 0.426,0.138 0.844,0.278 1.247,0.421 0.07,0.025 0.139,0.049 0.208,0.074 0.463,0.167 0.913,0.336 1.344,0.509 0.001,0 0.002,0.001 0.003,0.001 0.131,0.845 0.065,1.623 -0.202,2.366 z m 13.863,1.672 c -0.566,0.815 -1.388,0.995 -1.978,1.001 -0.012,0 -0.024,0 -0.036,0 -1.143,0 -2.302,-0.62 -3.034,-1.624 -1.384,-1.898 -3.854,-3.585 -7.34,-5.049 -0.006,-0.003 -0.01,-0.009 -0.017,-0.012 -0.039,-0.016 -0.081,-0.031 -0.12,-0.047 -0.303,-0.126 -0.62,-0.249 -0.939,-0.371 -0.276,-0.106 -0.556,-0.211 -0.843,-0.315 -0.292,-0.105 -0.586,-0.21 -0.891,-0.313 -0.418,-0.142 -0.851,-0.279 -1.29,-0.415 -0.165,-0.051 -0.315,-0.105 -0.483,-0.155 0.081,-0.032 0.173,-0.063 0.257,-0.095 0.03,-0.008 0.061,-0.001 0.09,-0.011 3.12,-1.138 8.458,-2.239 13.087,0.973 0.239,0.167 0.474,0.359 0.709,0.55 0.113,0.091 0.228,0.169 0.34,0.266 0.71,0.617 1.399,1.35 2.056,2.213 l 0.127,0.169 c 0.004,0.005 0.01,0.007 0.013,0.012 0.34,0.465 1.212,1.899 0.292,3.223 z"
   id="path10" />
	<path
   d="m 40.378,28.941 c -2.046,-0.78 -3.945,-2.182 -5.642,-4.167 -0.359,-0.42 -0.99,-0.469 -1.41,-0.11 -0.42,0.359 -0.469,0.99 -0.11,1.41 1.917,2.242 4.087,3.836 6.45,4.737 0.117,0.044 0.237,0.066 0.356,0.066 0.403,0 0.782,-0.246 0.935,-0.645 0.196,-0.516 -0.063,-1.094 -0.579,-1.291 z"
   id="path12" />
</g>
<g
   id="g16">
</g>
<g
   id="g18">
</g>
<g
   id="g20">
</g>
<g
   id="g22">
</g>
<g
   id="g24">
</g>
<g
   id="g26">
</g>
<g
   id="g28">
</g>
<g
   id="g30">
</g>
<g
   id="g32">
</g>
<g
   id="g34">
</g>
<g
   id="g36">
</g>
<g
   id="g38">
</g>
<g
   id="g40">
</g>
<g
   id="g42">
</g>
<g
   id="g44">
</g>
</svg>
